<?xml version="1.0" encoding="UTF-8" standalone="no"?>
<svg
   fill="#000000"
   width="800px"
   height="800px"
   viewBox="0 0 24 24"
   version="1.1"
   id="svg69"
   xmlns="http://www.w3.org/2000/svg"
   xmlns:svg="http://www.w3.org/2000/svg">
  <defs
     id="defs73" />
  <path
     fill-rule="evenodd"
     d="M 21.6,7.2 V 3.6 H 19.2 V 4.8 H 16.8 V 3.6 H 7.2 V 4.8 H 4.8 V 3.6 H 2.4 v 3.6 z m 0,2.4 H 2.4 v 12 H 21.6 Z M 19.2,1.2 h 2.4 c 1.325483,0 2.4,1.0745166 2.4,2.4 v 18 C 24,22.925483 22.925483,24 21.6,24 H 2.4 C 1.0745166,24 0,22.925483 0,21.6 V 3.6 C 0,2.2745166 1.0745166,1.2 2.4,1.2 H 4.8 V 0 h 2.4 v 1.2 h 9.6 V 0 h 2.4 z M 8.4,14.4 H 6 V 12 h 2.4 z m 4.8,0 H 10.8 V 12 h 2.4 z m 4.8,0 H 15.6 V 12 H 18 Z M 8.4,19.2 H 6 v -2.4 h 2.4 z m 4.8,0 h -2.4 v -2.4 h 2.4 z"
     id="path67"
     style="stroke-width:1.20001" />
</svg>
