<?xml version="1.0" encoding="UTF-8"?>
<svg width="800px" height="800px" fill="#000000" version="1.2" viewBox="0 0 24 24" xmlns="http://www.w3.org/2000/svg">
 <g transform="matrix(1.2468 0 0 1.3333 -2.1818 -4)">
  <path d="m20.756 5.345c-0.191-0.219-0.466-0.345-0.756-0.345h-13.819l-0.195-1.164c-0.08-0.482-0.497-0.836-0.986-0.836h-2.25c-0.553 0-1 0.447-1 1s0.447 1 1 1h1.403l1.86 11.164 0.045 0.124 0.054 0.151 0.12 0.179 0.095 0.112 0.193 0.13 0.112 0.065c0.116 0.047 0.238 0.075 0.367 0.075h11.001c0.553 0 1-0.447 1-1s-0.447-1-1-1h-10.153l-0.166-1h11.319c0.498 0 0.92-0.366 0.99-0.858l1-7c0.041-0.288-0.045-0.579-0.234-0.797zm-1.909 1.655-0.285 2h-3.562v-2zm-4.847 0v2h-3v-2zm0 3v2h-3v-2zm-4-3v2h-3l-0.148 0.03-0.338-2.03zm-2.986 3h2.986v2h-2.653zm7.986 2v-2h3.418l-0.285 2z"/>
  <circle cx="8.5" cy="19.5" r="1.5"/>
  <circle cx="17.5" cy="19.5" r="1.5"/>
 </g>
</svg>
