<?xml version="1.0" encoding="UTF-8" standalone="no"?>
<svg
   width="300"
   height="300"
   viewBox="0 0 79.374998 79.375"
   version="1.1"
   id="svg5"
   xml:space="preserve"
   xmlns="http://www.w3.org/2000/svg"
   xmlns:svg="http://www.w3.org/2000/svg"><defs
     id="defs2" /><g
     id="layer1"><path
       fill="#000000"
       stroke-width="0.16726"
       d="m 34.878301,79.131206 c -1.326907,-0.349879 -2.483144,-0.982989 -3.075149,-1.683817 -0.920067,-1.089208 -1.026475,-1.771753 -1.026475,-6.584423 0,-5.289937 0.0754,-5.644639 1.495354,-7.034899 1.078725,-1.056168 2.190083,-1.554774 4.05379,-1.818712 1.638816,-0.232091 37.540829,-0.218883 38.829091,0.01428 1.857634,0.336223 3.013771,1.191064 3.783462,2.797473 0.435718,0.909371 0.436626,0.920605 0.436626,5.379843 0,4.935861 -0.09337,5.542292 -1.089665,7.077466 -0.542642,0.836141 -1.705809,1.671012 -2.707847,1.943565 -0.376187,0.102322 -7.859781,0.15882 -20.205832,0.152546 -16.318304,-0.0083 -19.756858,-0.0491 -20.493355,-0.243322 z M 72.867049,70.614709 V 68.297676 H 55.118101 37.369147 v 2.317033 2.317039 H 55.118101 72.867049 Z M 0.04817174,69.911322 0.09634348,68.214926 1.6599444,68.167324 3.223541,68.119722 V 65.891645 63.663568 H 1.6176823 0.01182571 V 62.008542 60.353516 H 13.027725 26.043624 v 1.655026 1.655026 h -1.605858 -1.605857 v 2.228077 2.228077 l 1.563598,0.0476 1.563598,0.0476 0.04817,1.696402 0.04817,1.696403 H 13.027725 0 Z M 1.207309,58.739897 c 0.00671,-0.06827 1.945802,-1.749112 4.3090717,-3.735204 L 9.8132339,51.393614 9.3142131,50.784376 C 8.3154155,49.564974 7.9998096,47.523065 8.5609221,45.910731 8.8771767,45.001986 9.8799602,43.834444 10.728482,43.387041 l 0.608866,-0.321039 v -1.617389 c 0,-1.587158 -0.0074,-1.617391 -0.397071,-1.617391 -0.392979,0 -0.405191,-0.05671 -1.184904,-5.502962 -0.4333079,-3.026629 -0.7870942,-5.558819 -0.7861922,-5.627089 8.996e-4,-0.06827 0.5341091,-0.124127 1.1849042,-0.124127 h 1.183263 L 11.336449,18.440008 11.335549,8.3029726 10.231506,6.41075 C 9.624273,5.3700275 9.1598885,4.4357707 9.1995318,4.3346239 9.3069611,4.0605215 16.43106,-0.0818397 16.652166,0.00123271 16.756758,0.04052799 24.436613,10.4334 33.718513,23.096501 l 16.876181,23.023821 h 1.585553 c 0.872053,0 1.585552,-0.0324 1.585552,-0.07199 0,-0.0396 -0.456401,-1.27942 -1.014227,-2.755169 L 51.737347,40.609985 V 33.02124 25.432494 h 12.255228 12.25523 v 15.14349 15.14349 h -4.902094 -4.902089 v 1.572275 1.572275 H 54.272913 42.102201 v -1.572275 -1.572275 h -3.211716 -3.211716 v -0.87143 c 0,-0.828722 -0.458351,-1.735118 -9.352661,-18.494917 C 21.182145,26.660207 16.849374,18.50621 16.69773,18.23313 16.437985,17.765384 16.421622,18.050591 16.415246,23.156833 l -0.0068,5.420211 h 1.183263 c 0.650795,0 1.183294,0.05586 1.183333,0.124127 3.7e-5,0.06827 -0.505588,2.60046 -1.123611,5.627089 l -1.123682,5.502962 h -0.90484 -0.90484 v 2.572813 c 0,2.488401 -0.01319,2.585725 -0.401936,2.966345 -0.221065,0.216441 -0.720005,0.486832 -1.108756,0.600871 -1.258764,0.369247 -1.837569,1.462872 -1.340052,2.531968 0.271385,0.583168 0.595742,0.647691 1.169201,0.23258 0.476706,-0.345072 0.521734,-0.348796 1.077901,-0.08912 l 0.580414,0.270992 0.09613,-0.488408 c 0.05287,-0.268624 0.140006,-0.71093 0.19363,-0.982899 0.218643,-1.108922 1.790685,-1.547873 2.724458,-0.760734 0.43372,0.365612 0.474255,0.496608 0.474004,1.531809 -1.68e-4,0.886247 -0.09595,1.321305 -0.440998,2.003929 l -0.440725,0.871922 4.835978,3.843993 4.835978,3.843993 -1.389203,0.04798 -1.3892,0.04798 -4.020005,-3.179775 c -2.211,-1.748877 -4.09958,-3.237893 -4.196841,-3.308926 -0.09726,-0.07103 -0.51563,-0.01347 -0.929708,0.127912 -0.549116,0.187495 -1.050223,0.227169 -1.851612,0.146599 -0.60431,-0.06076 -1.266728,-0.124059 -1.472041,-0.140672 -0.264277,-0.02139 -1.481322,0.900222 -4.1673419,3.15572 l -3.7940475,3.18593 H 2.4792121 c -0.7062686,0 -1.2786242,-0.05586 -1.2719031,-0.124127 z M 41.710277,46.927599 c 2.121458,-1.194472 3.923829,-2.231626 4.005267,-2.304785 0.08144,-0.07316 -0.669467,-1.221785 -1.668679,-2.552505 -0.999215,-1.330719 -1.844982,-2.391851 -1.879486,-2.35807 -0.07045,0.06897 -4.460158,9.258435 -4.460158,9.336936 0,0.120822 0.347805,-0.06351 4.003056,-2.121576 z m -4.815891,-5.152366 c 0.901015,-2.116009 1.760675,-4.133334 1.910353,-4.482944 0.330634,-0.772281 0.607933,-0.92294 -3.235508,1.757885 l -3.067695,2.139739 1.017032,1.761818 c 1.468212,2.543403 1.5476,2.672149 1.647277,2.671437 0.04968,-3.31e-4 0.827527,-1.731925 1.728541,-3.847935 z m 32.760949,-5.171312 v -4.716825 h -5.578242 -5.578239 v 4.716825 4.716825 h 5.578239 5.578242 z M 37.676407,33.788317 c 0.02954,-0.02636 -0.613711,-0.949539 -1.429443,-2.051496 -1.038495,-1.402882 -1.52209,-1.93543 -1.613035,-1.776317 -0.185706,0.324899 -3.010458,7.446554 -3.011334,7.592057 -5.29e-4,0.08945 5.724769,-3.470529 6.053812,-3.764244 z m -6.999515,-2.563231 c 0.781632,-2.048095 1.399776,-3.745341 1.373659,-3.771658 -0.04309,-0.04342 -4.890828,3.154242 -5.214713,3.439737 -0.07562,0.06666 0.380582,1.138971 1.013783,2.38292 0.869124,1.707431 1.182505,2.18956 1.278702,1.967267 0.07009,-0.161951 0.76694,-1.970171 1.548569,-4.018266 z M 14.549063,21.387984 v -7.189058 l -0.673772,-1.210199 -0.673773,-1.210199 -0.0024,8.399258 -0.0024,8.399258 h 0.676151 0.67615 z m 14.223139,0.140668 c -0.896408,-1.287968 -1.648174,-2.295691 -1.670593,-2.239382 -0.08911,0.223819 -1.565098,7.2059 -1.565098,7.403603 0,0.116394 1.094741,-0.471042 2.43276,-1.305417 l 2.432762,-1.517042 z m -4.705075,-1.245128 c 0.446945,-2.012368 0.789246,-3.678466 0.76067,-3.702441 -0.02858,-0.02398 -1.016128,0.573859 -2.19456,1.32852 l -2.142606,1.372109 1.270476,2.330629 c 0.698761,1.281846 1.320632,2.330495 1.381936,2.33033 0.0613,-1.64e-4 0.477141,-1.646781 0.924084,-3.659147 z m -2.130726,-6.71026 0.879388,-0.553542 -1.46476,-2.49134 -1.464761,-2.4913399 -0.884961,3.8567739 c -0.486728,2.121226 -0.888896,3.913071 -0.893707,3.981877 -0.0048,0.06881 0.65684,-0.296545 1.470333,-0.811892 0.813494,-0.515347 1.874804,-1.186089 2.358468,-1.490537 z M 16.742136,8.5735614 c 0.38443,-1.9442753 0.665202,-3.5681011 0.62394,-3.6085011 -0.09465,-0.092669 -3.726976,2.2388657 -3.802513,2.4407734 -0.05025,0.1343183 2.366903,4.8131253 2.446357,4.7353333 0.01829,-0.01791 0.347787,-1.62333 0.732216,-3.5676056 z"
       id="path179" /></g></svg>
