<?xml version="1.0" encoding="UTF-8" standalone="no"?>
<svg
   width="100mm"
   height="100mm"
   viewBox="0 0 100 100"
   version="1.1"
   id="svg22196"
   xml:space="preserve"
   xmlns="http://www.w3.org/2000/svg"
   xmlns:svg="http://www.w3.org/2000/svg"><defs
     id="defs22193" /><g
     id="layer1"><path
       fill="#000000"
       stroke-width="0.264019"
       d="m 51.587302,81.003693 v -4.9964 l 1.388888,-0.002 c 3.510275,-0.005 8.292503,-1.88008 11.284095,-4.42523 1.506998,-1.2821 4.373048,-4.70058 4.637975,-5.53195 0.102822,-0.32261 -3.779456,-8.8356 -11.355138,-24.89929 -6.331256,-13.42498 -11.511376,-24.474678 -11.511376,-24.55489 0,-0.08022 2.571011,-0.113885 5.71336,-0.07483 l 5.71336,0.071 8.697079,19.76177 c 4.783395,10.86898 8.807535,19.99892 8.942532,20.28876 0.207526,0.44555 0.448164,0.0995 1.557299,-2.23967 4.171145,-8.79684 8.57963,-21.43357 11.444283,-32.804543 l 1.261225,-5.006317 5.319558,-0.07132 C 99.958711,16.448019 100,16.451833 100,17.010222 c 0,0.309516 -0.658778,2.890884 -1.46395,5.736371 -7.896182,27.90518 -18.982269,49.59351 -29.424082,57.56397 -4.434786,3.38517 -9.230489,5.07868 -15.738953,5.55794 l -1.785713,0.1315 z M 0,50.882063 V 16.534684 l 1.7857138,-0.167737 c 4.1137158,-0.386411 13.7839132,-0.495265 17.1296302,-0.192821 9.21068,0.83262 15.244656,3.142861 19.24786,7.369467 2.00578,2.11771 3.138296,4.24737 3.932309,7.39457 0.498609,1.97633 0.545791,2.71883 0.418569,6.58726 -0.167008,5.07823 -0.659011,7.32186 -2.371688,10.81538 -1.490407,3.04014 -4.665146,6.25039 -7.734987,7.8215 -4.800288,2.45674 -9.730388,3.3636 -17.393645,3.19943 l -4.960852,-0.10628 v 12.98701 12.98699 H 5.0264547 0 Z m 19.054559,-0.70606 c 3.060822,-0.37236 5.071273,-0.90736 7.043131,-1.87421 1.84713,-0.9057 3.943535,-2.92495 4.826603,-4.64898 1.7039,-3.32653 1.786194,-8.78234 0.179135,-11.87615 -1.275214,-2.45497 -4.244131,-4.56495 -7.823005,-5.55973 -2.699289,-0.7503 -8.280579,-1.21132 -10.978836,-0.90685 l -2.116402,0.23881 -0.06877,12.16715 -0.06877,12.16714 1.391518,0.15277 c 1.329837,0.14602 2.838848,0.26703 4.573062,0.36674 0.440325,0.0253 1.809373,-0.0767 3.042328,-0.22669 z"
       id="path301" /></g></svg>
